<?xml version="1.0" encoding="utf-8"?>
<!-- Generator: Adobe Illustrator 25.3.1, SVG Export Plug-In . SVG Version: 6.00 Build 0)  -->
<svg version="1.1" id="Capa_1" xmlns="http://www.w3.org/2000/svg" xmlns:xlink="http://www.w3.org/1999/xlink" x="0px" y="0px"
	 viewBox="0 0 1366 768" style="enable-background:new 0 0 1366 768;" xml:space="preserve">
<style type="text/css">
	.st0{opacity:0.61;fill:#FCEE21;stroke:#FCEE21;stroke-width:7;stroke-miterlimit:10;}
	.st1{fill:none;stroke:#0000FF;stroke-width:4;stroke-miterlimit:10;}
	.st2{opacity:0.61;fill:#39B54A;stroke:#39B54A;stroke-width:4;stroke-miterlimit:10;}
	.st3{opacity:0.61;fill:#662D91;stroke:#662D91;stroke-width:6;stroke-miterlimit:10;}
	.st4{opacity:0.61;fill:#29ABE2;stroke:#29ABE2;stroke-width:6;stroke-miterlimit:10;}
	.st5{opacity:0.61;fill:#FBB03B;stroke:#FBB03B;stroke-miterlimit:10;}
	.st6{opacity:0.65;fill:#0000FF;stroke:#0000FF;stroke-width:4;stroke-miterlimit:10;}
	.st7{opacity:0.61;fill:none;stroke:#0000FF;stroke-width:30;stroke-miterlimit:10;}
</style>
<g>
	<path class="st0" d="M985.33,350.13l-5.19,6.23c-4.99,5.98-14.32,8.07-22.4,5.26c-6.9-2.4-14.61-4.07-23.4-4.07
		c-11.93,0-25.45,5.64-25.45,16.36c0,10.44,22.77,16.37,34.32,19.47c35.6,7.91,65.13,26.03,65.13,56.12v0.09v0.08
		c0,29.19-29.06,57.65-75.45,57.65c-23,0-41.99-5.27-59.09-13.58c-9.49-4.62-12.65-14.77-7.06-22.63l4.2-5.91
		c4.49-6.31,14.29-8.4,21.91-4.69c11.76,5.73,24.89,9.87,39.5,9.87c14.87,0,31.46-6.03,31.46-20.69c0-13.08-23.5-19.15-38.18-22.86
		c-30.37-6.83-61.27-22.14-61.27-52.9c0-29.23,32.01-52.43,69.93-52.43c19.44,0,33.37,3.83,45.14,8.79
		C988.23,334.02,990.95,343.4,985.33,350.13z"/>
	<path class="st1" d="M1093.77,516.1"/>
	<path class="st1" d="M249.18,516.1"/>
	<path class="st2" d="M823.47,316.08c54.32,0,97.45,44.27,97.45,96.58s-43.13,96.58-97.45,96.58h-42.25l1.52,76.97
		c0.07,3.59-2.79,6.54-6.34,6.54h-28c-4.6,0-8.35-3.73-8.4-8.38c-0.37-34.44-1.75-167.24-1.75-251.29
		C738.26,311.22,823.47,316.08,823.47,316.08z M790.77,449.72c15.98,12.15,32.7,9.66,32.7,9.66c24.36,0,45.02-19.89,45.02-46.71
		s-20.66-46.71-45.02-46.71c0,0-16.15-1.37-32.7,13.31C777.07,391.41,773.57,436.65,790.77,449.72z"/>
	<path class="st3" d="M776.32,411.78c0,52.78-42.93,95.54-95.91,95.54c-52.98,0-95.91-42.77-95.91-95.54s42.93-95.54,95.91-95.54
		C733.39,316.24,776.32,359.01,776.32,411.78z M620.81,411.78c0,32.92,26.7,59.64,59.6,59.64h0c32.9,0,59.6-26.72,59.6-59.64
		c0-32.92-26.7-59.64-59.6-59.64C647.51,352.15,620.81,378.86,620.81,411.78z"/>
	<path class="st4" d="M622.12,411.78c0,52.78-42.93,95.54-95.91,95.54s-95.91-42.77-95.91-95.54s42.93-95.54,95.91-95.54
		C579.19,316.24,622.12,359.01,622.12,411.78z M466.61,411.78c0,32.92,26.7,59.64,59.6,59.64h0c32.9,0,59.6-26.72,59.6-59.64
		c0-32.92-26.7-59.64-59.6-59.64C493.31,352.15,466.61,378.86,466.61,411.78z"/>
	<path class="st5" d="M395.23,184.5h114.37c15.64,0,28.32,13.36,28.32,29.85v4.46c0,18.01-13.85,32.62-30.95,32.62H393.5l0.04,61.25
		l117.85-1.97c15.2,0,17.68,7.57,17.68,23.59v5.9c0,14.25-8.08,17.69-21.61,17.69l-113.92,1.97l-0.04,120.39
		c0,16.56-12.73,29.98-28.44,29.98h-1.52c-19.27,0-35.02-16.22-35.44-36.53c-1.02-48.81,0.42-172.3,1.36-240.9
		c0.36-26.57,20.81-47.96,46.03-48.14L395.23,184.5z"/>
	<ellipse class="st6" cx="1082.01" cy="558.62" rx="22.59" ry="21.62"/>
	<path class="st7" d="M1067.93,433.15c-2.63-5.51,5.27,9.44,7.02,22.82c0.54,4.15,8.1,43.85,9.84,40.31
		c44.43-92.69,147.62-300.22,141.99-288.84"/>
</g>
</svg>
